<?xml version="1.0" encoding="UTF-8"?>
<svg id="_Слой_1" data-name="Слой_1" xmlns="http://www.w3.org/2000/svg" version="1.1" viewBox="0 0 135 135">
  <!-- Generator: Adobe Illustrator 29.5.0, SVG Export Plug-In . SVG Version: 2.1.0 Build 137)  -->
  <defs>
    <style>
      .st0 {
        fill: #fff;
      }

      .st1 {
        opacity: .5;
      }
    </style>
  </defs>
  <g class="st1">
    <path class="st0" d="M27.63,75.12c-1.29,1.14-2.04,2.78-2.05,4.51-.01,1.73.71,3.37,1.99,4.53,1.33,1.17,3.1,1.75,5.31,1.75h.02c1.75.01,3.47-.51,4.92-1.49,1.21-.81,2.42-2.04,3.62-3.64-1.4-1.94-2.69-3.96-3.83-6.07-1.45-.88-3.12-1.35-4.82-1.31-1.87-.07-3.71.54-5.17,1.72Z"/>
    <path class="st0" d="M87.98,112.34h-8.13l-1.82-9.1c-13.61-2.09-25.58-9.12-34.05-19.2-1.32,1.61-2.9,3-4.68,4.09-2.04,1.22-4.37,1.86-6.74,1.86-3.59,0-6.52-.94-8.81-2.83-2.18-1.85-3.44-4.56-3.44-7.42s1.26-5.57,3.44-7.42c2.29-1.96,5.23-2.94,8.81-2.94.91,0,1.79.11,2.65.27-2.74-6.58-4.26-13.8-4.26-21.38,0-1.32.06-2.63.15-3.93h-5.39c-1.12,0-2.09.79-2.31,1.89l-13.22,66.1H2.05c-1.3,0-2.36,1.06-2.36,2.36v17.94c0,1.3,1.06,2.36,2.36,2.36h5.56c1.3,0,2.36-1.06,2.36-2.36v-6.37c0-1.3,1.06-2.36,2.36-2.36h65.16c1.3,0,2.36,1.06,2.36,2.36v6.37c0,1.3,1.06,2.36,2.36,2.36h5.77c1.3,0,2.36-1.06,2.36-2.36v-17.94c0-1.3-1.06-2.36-2.36-2.36Z"/>
  </g>
  <path class="st0" d="M86.82,95.8h-.27c-26.26,0-47.52-21.26-47.52-47.52S60.29.75,86.55.75s.18,0,.27,0c-19.81,6.72-34.08,25.44-34.08,47.52s14.26,40.8,34.08,47.52ZM98.55,38.55c0,1.18.46,2.18,1.27,2.91s1.91,1.09,3.18,1.09,1.46-.09,2.27-.37c.91-.27,1.82-.91,2.72-2.09.91-1.09,1.37-2.63,1.37-4.37h0c0-2.27-1-4.18-2.72-5.45-1.72-1.37-3.82-2-6.18-2-3.54,0-6.63,1.72-9.18,5-.91-1.37-2.09-2.45-3.72-3.37-1.82-1.09-3.91-1.63-6.09-1.63-4.37,0-8,1.72-11,5-2.91,3.18-4.63,6.09-5.09,8.63h0c0,.54.27,1,.73,1.46l.18.18h1.54c1.09,0,1.46-.18,1.54-.18.46-.18.63-.73.82-1.18.82-2.72,2.27-5.09,4.37-6.82,2-1.72,4.18-2.63,6.54-2.63s2,.27,2.82.91,1.18,1.54,1.18,3-.18,1.72-.46,3.27c-.09.54-.63,2.45-1.46,5.63-.82,3.18-1.72,6.36-2.54,9.27-.82,2.91-1.54,4.82-2,5.72-1.46,2.45-3.18,3.63-5.27,3.63h0c-.46,0-1,0-1.54-.18-.37-.09-.63-.27-.91-.37.09,0,.27-.09.37-.18.73-.27,1.54-.91,2.27-1.82.82-.91,1.18-2.09,1.18-3.37,0-1.91-.73-4.09-4.45-4.09s-3.18.63-4.45,1.91-1.91,2.91-1.91,4.82h0c0,1.82.82,3.45,2.09,5.09,1.37,1.63,3.63,2.45,6.82,2.45h.54c3.18,0,6.09-1.63,8.54-4.91,2.27,3.37,5.54,5,9.72,5s7.27-1.37,10.09-3.91,4.82-5.54,5.82-8.91h0c.12-.67.18-1.03.18-1.09,0-.46-.27-1.18-1.91-1.18h-.37c-1.09,0-1.46.18-1.54.18-.37.09-.63.54-.91,1.27h0c-.73,2.63-2.18,4.91-4.37,6.72-2.09,1.82-4.18,2.72-6.36,2.72s-2-.27-2.91-.91c-.82-.63-1.27-1.54-1.27-3,0-2.09,1.82-9.45,5.45-22.08,1-2.72,2.63-4.54,4.82-5.36.18,0,.63-.18,1.54-.18h0c1.09,0,2,.18,2.63.46-2.63,1.09-4,3-4,5.54v-.27h0ZM86.82.75c19.81,6.72,34.08,25.44,34.08,47.52s-14.17,40.8-34.08,47.52c26.08-.18,47.25-21.35,47.25-47.52S112.99.93,86.82.75Z"/>
</svg>